<svg xmlns="http://www.w3.org/2000/svg" width="13.001" height="13" viewBox="0 0 13.001 13">
    <path data-name="패스 47" d="M14.16-37.693a.927.927 0 0 1-.224.5 5.138 5.138 0 0 1-.492.573 3.809 3.809 0 0 0-.492.614 1.174 1.174 0 0 0-.224.621q0 .152.324.3t.7.338a1.786 1.786 0 0 1 .7.745 2.761 2.761 0 0 1 .324 1.4 3.126 3.126 0 0 1-.847 2.278 2.955 2.955 0 0 1-2.216.87 2.914 2.914 0 0 1-2.2-.952 3.264 3.264 0 0 1-.9-2.333A5.128 5.128 0 0 1 9-34.566a8.379 8.379 0 0 1 1-1.863 5.856 5.856 0 0 1 1.463-1.442 2.949 2.949 0 0 1 1.669-.58 1.116 1.116 0 0 1 .741.235.679.679 0 0 1 .287.523zm-6.836 0a1.15 1.15 0 0 1-.361.656q-.361.407-.716.856a1.353 1.353 0 0 0-.355.794q0 .152.324.3t.7.338a1.786 1.786 0 0 1 .7.745 2.761 2.761 0 0 1 .324 1.4 3.126 3.126 0 0 1-.84 2.282 2.955 2.955 0 0 1-2.216.87 2.914 2.914 0 0 1-2.2-.952 3.264 3.264 0 0 1-.9-2.333 5.128 5.128 0 0 1 .386-1.829 8.379 8.379 0 0 1 1-1.863 5.856 5.856 0 0 1 1.463-1.442 2.949 2.949 0 0 1 1.669-.58 1.116 1.116 0 0 1 .741.235.679.679 0 0 1 .28.523z" transform="translate(-1.781 40.453)" style="fill:#595959"/>
</svg>
