<svg id="아이콘" xmlns="http://www.w3.org/2000/svg" width="32" height="32" viewBox="0 0 32 32">
    <defs>
        <style>
            .cls-2{fill:#d5c679}
        </style>
    </defs>
    <g id="그룹_109456" data-name="그룹 109456" transform="translate(.428 8.396)">
        <g id="그룹_109457" data-name="그룹 109457">
            <path id="패스_36372" data-name="패스 36372" d="m548.136 535.32-1.941-3.887a.781.781 0 0 0-.7-.432h-5.11a.78.78 0 0 0-.773.675l-.394 7.464a1.059 1.059 0 0 1-1.058 1h-11a.59.59 0 0 0-.59.59v.609a.59.59 0 0 0 .59.59h13.751a2.92 2.92 0 0 1 5.608 0 1.444 1.444 0 0 0 1.4-1.293l.435-4.129a2.163 2.163 0 0 0-.217-1.19m-4.671 1.147h-.766a.349.349 0 1 1 0-.7h.763a.349.349 0 1 1 0 .7m3.263-1.487h-3.868a.509.509 0 0 1-.508-.518l.029-2.25a.312.312 0 0 1 .313-.309h3.022a.444.444 0 0 1 .4.257l1.013 2.189a.443.443 0 0 1-.4.631" transform="translate(-517.219 -529.923)" style="fill:#da2128"/>
            <path id="패스_36373" data-name="패스 36373" class="cls-2" d="M537.884 482.032H527.5a.925.925 0 0 0-.925.925v7.794a.925.925 0 0 0 .925.925h10.387a.925.925 0 0 0 .925-.925v-7.794a.925.925 0 0 0-.925-.925" transform="translate(-517.223 -482.032)"/>
            <path id="패스_36374" data-name="패스 36374" d="M1297.753 859.676h-1.035a.262.262 0 0 1-.262-.263v-.542a.262.262 0 0 1 .262-.262h1.035a.262.262 0 0 1 .262.262v.542a.263.263 0 0 1-.262.263" transform="translate(-1266.871 -849.497)" style="fill:#fcff00"/>
            <path id="패스_36375" data-name="패스 36375" d="M590.53 962.8a2.346 2.346 0 1 1-4.693 0 .419.419 0 0 1 .424-.409h1.034a.978.978 0 1 0 1.776 0h1.034a.419.419 0 0 1 .424.409" transform="translate(-573.94 -949.939)"/>
            <path id="패스_36376" data-name="패스 36376" class="cls-2" d="M226.643 482.032h-7.305a.693.693 0 1 0 0 1.375h3.377a.693.693 0 1 1 0 1.375h-4.829a.693.693 0 1 0 0 1.375h3.337a.684.684 0 0 1 .721.639.771.771 0 0 1-.813.72h-.34a.693.693 0 1 0 0 1.375h2.323a.61.61 0 1 1 0 1.212h-.414a.792.792 0 1 0 0 1.573h3.941z" transform="translate(-214.994 -482.032)"/>
            <path id="패스_36377" data-name="패스 36377" class="cls-2" d="M307.529 795.5a.763.763 0 1 0-.758.671.718.718 0 0 0 .758-.671" transform="translate(-301.562 -787.098)"/>
            <path id="패스_36378" data-name="패스 36378" class="cls-2" d="M138.129 586.892a.763.763 0 1 0-.758.671.718.718 0 0 0 .758-.671" transform="translate(-136.614 -583.646)"/>
            <path id="패스_36379" data-name="패스 36379" d="M1094.262 890.328a2.349 2.349 0 1 0 .146.817 2.348 2.348 0 0 0-.146-.817m-2.2 1.8a.979.979 0 1 1 .979-.979.979.979 0 0 1-.979.979" transform="translate(-1065.563 -878.284)"/>
        </g>
    </g>
    <path id="사각형_19610" data-name="사각형 19610" style="fill:none" d="M0 0h32v32H0z"/>
</svg>
