<svg id="icon_army" xmlns="http://www.w3.org/2000/svg" width="18" height="18" viewBox="0 0 18 18">
    <defs>
        <style>
            .cls-2{fill:none;stroke:#000}
        </style>
    </defs>
    <path id="사각형_3529" data-name="사각형 3529" style="fill:none" d="M0 0h18v18H0z"/>
    <g id="그룹_109431" data-name="그룹 109431" transform="translate(3.591 1)">
        <g id="그룹_109432" data-name="그룹 109432">
            <path id="패스_36349" data-name="패스 36349" class="cls-2" d="M22.733 35.629 17.605 37.5a.244.244 0 0 1-.169 0l-5.128-1.871a.328.328 0 0 1-.2-.314v-2.162a.293.293 0 0 1 .367-.314l4.959 1.809a.244.244 0 0 0 .169 0l4.959-1.809a.293.293 0 0 1 .366.314v2.162a.328.328 0 0 1-.2.314" transform="translate(-12.111 -21.515)"/>
            <path id="패스_36350" data-name="패스 36350" class="cls-2" d="m22.733 23.293-5.128 1.871a.244.244 0 0 1-.169 0l-5.128-1.871a.328.328 0 0 1-.2-.314v-2.162a.293.293 0 0 1 .367-.314l4.959 1.809a.244.244 0 0 0 .169 0l4.962-1.812a.293.293 0 0 1 .366.314v2.162a.328.328 0 0 1-.2.314" transform="translate(-12.111 -13.87)"/>
            <path id="패스_36351" data-name="패스 36351" d="m24.678 2.942.737 1.494 1.649.24a.3.3 0 0 1 .165.507l-1.194 1.162.282 1.642a.3.3 0 0 1-.432.314l-1.475-.775-1.473.774a.3.3 0 0 1-.432-.314l.281-1.642-1.192-1.162a.3.3 0 0 1 .165-.507l1.648-.24.737-1.494a.3.3 0 0 1 .533 0" transform="translate(-19.001 -2.776)" style="stroke:#da2128;fill:none"/>
        </g>
    </g>
</svg>
