<svg xmlns="http://www.w3.org/2000/svg" width="33.351" height="39.088" viewBox="0 0 33.351 39.088">
  <g id="Group_110087" data-name="Group 110087" transform="translate(-275.631 -1164.157)">
    <path id="Path_37263" data-name="Path 37263" d="M27.477,123.78c.916.916,3.445,6.763,3.445,6.763s-5.847-2.529-6.763-3.446a2.346,2.346,0,0,1,3.318-3.318" transform="translate(261.383 1042.064)" fill="#fff"/>
    <path id="Path_37264" data-name="Path 37264" d="M27.477,123.78c.916.916,3.445,6.763,3.445,6.763s-5.847-2.529-6.763-3.446a2.346,2.346,0,0,1,3.318-3.318Z" transform="translate(261.383 1042.064)" fill="none" stroke="#080d4b" stroke-linecap="round" stroke-linejoin="round" stroke-width="2"/>
    <path id="Path_37265" data-name="Path 37265" d="M46.821,123.78c-.916.916-3.445,6.763-3.445,6.763s5.847-2.529,6.763-3.446a2.346,2.346,0,1,0-3.318-3.318" transform="translate(248.932 1042.064)" fill="#fff"/>
    <path id="Path_37266" data-name="Path 37266" d="M46.821,123.78c-.916.916-3.445,6.763-3.445,6.763s5.847-2.529,6.763-3.446a2.346,2.346,0,1,0-3.318-3.318Z" transform="translate(248.932 1042.064)" fill="none" stroke="#080d4b" stroke-linecap="round" stroke-linejoin="round" stroke-width="2"/>
    <rect id="Rectangle_19796" data-name="Rectangle 19796" width="31.351" height="6.862" transform="translate(276.631 1172.826)" fill="#f06a86"/>
    <rect id="Rectangle_19797" data-name="Rectangle 19797" width="31.351" height="6.862" transform="translate(276.631 1172.826)" fill="none" stroke="#080d4b" stroke-linecap="round" stroke-linejoin="round" stroke-width="2"/>
    <rect id="Rectangle_19798" data-name="Rectangle 19798" width="28.631" height="22.557" transform="translate(277.99 1179.688)" fill="#f06a86"/>
    <rect id="Rectangle_19799" data-name="Rectangle 19799" width="28.631" height="22.557" transform="translate(277.99 1179.688)" fill="none" stroke="#080d4b" stroke-linecap="round" stroke-linejoin="round" stroke-width="2"/>
    <rect id="Rectangle_19800" data-name="Rectangle 19800" width="3.783" height="29.419" transform="translate(290.414 1172.826)" fill="#fff"/>
    <rect id="Rectangle_19801" data-name="Rectangle 19801" width="3.783" height="29.419" transform="translate(290.414 1172.826)" fill="none" stroke="#080d4b" stroke-linecap="round" stroke-linejoin="round" stroke-width="2"/>
  </g>
</svg>
