<svg xmlns="http://www.w3.org/2000/svg" xmlns:xlink="http://www.w3.org/1999/xlink" width="375" height="150" viewBox="0 0 375 150">
  <defs>
    <filter id="핫_딜_특가" x="96.137" y="48.685" width="183" height="46" filterUnits="userSpaceOnUse">
      <feOffset dx="3" dy="3" input="SourceAlpha"/>
      <feGaussianBlur result="blur"/>
      <feFlood/>
      <feComposite operator="in" in2="blur"/>
      <feComposite in="SourceGraphic"/>
    </filter>
    <clipPath id="clip-path">
      <rect id="사각형_19879" data-name="사각형 19879" width="21.348" height="21.194" fill="#f86493" stroke="#707070" stroke-width="1.6"/>
    </clipPath>
    <clipPath id="clip-path-2">
      <rect id="사각형_19880" data-name="사각형 19880" width="34.325" height="34.077" fill="#f86493" stroke="#707070" stroke-width="1.6"/>
    </clipPath>
    <clipPath id="clip-path-3">
      <rect id="사각형_19881" data-name="사각형 19881" width="25.222" height="25.04" fill="#f86493" stroke="#707070" stroke-width="1.6"/>
    </clipPath>
    <clipPath id="clip-path-4">
      <rect id="사각형_19882" data-name="사각형 19882" width="24.78" height="24.602" fill="#f86493" stroke="#707070" stroke-width="1.6"/>
    </clipPath>
    <clipPath id="clip-path-5">
      <rect id="사각형_20385" data-name="사각형 20385" width="113" height="61" transform="translate(262 246)" fill="#86ccff"/>
    </clipPath>
  </defs>
  <g id="그룹_111957" data-name="그룹 111957" transform="translate(0 -157)">
    <rect id="사각형_20384" data-name="사각형 20384" width="375" height="150" transform="translate(0 157)" fill="#86ccff"/>
    <g id="그룹_111956" data-name="그룹 111956">
      <g id="그룹_111954" data-name="그룹 111954" transform="translate(-1.863 -4.999)">
        <g id="그룹_111948" data-name="그룹 111948" transform="translate(23663 16563.91)">
          <g id="그룹_110111" data-name="그룹 110111" transform="translate(-23654.25 -16567.059)">
            <path id="패스_37288" data-name="패스 37288" d="M250.8,55.961a26.388,26.388,0,0,0,4.125-13.992c0-18.522-20.246-33.538-45.22-33.538-16.057,0-30.149,6.213-38.173,15.568-7.34-7.314-19.085-12.053-32.323-12.053a51.362,51.362,0,0,0-19.59,3.773c-7.1-6.789-17.329-11.682-29.39-13.517a65.32,65.32,0,0,0-9.675-.7c-27.289,0-49.411,16.407-49.411,36.646,0,.588.023,1.172.059,1.753C20.231,45.654,13.06,55.131,13.06,65.856c0,17.551,19.185,31.78,42.849,31.78A58.038,58.038,0,0,0,62.1,97.3c5.213,9.331,17.606,15.9,32.071,15.9,12.511,0,23.472-4.911,29.579-12.275a67.244,67.244,0,0,0,21.415,3.431,64.356,64.356,0,0,0,30.9-7.566c5.9,6.607,16.016,10.967,27.5,10.967,16.164,0,29.6-8.627,32.425-20.01a30.041,30.041,0,0,0,6.731.753c12.525,0,22.677-7.53,22.677-16.819,0-7.18-6.068-13.3-14.606-15.718" transform="translate(39.67 181.332)" fill="#fec9c9"/>
            <path id="패스_37289" data-name="패스 37289" d="M250.8,55.961a26.388,26.388,0,0,0,4.125-13.992c0-18.522-20.246-33.538-45.22-33.538-16.057,0-30.149,6.213-38.173,15.568-7.34-7.314-19.085-12.053-32.323-12.053a51.362,51.362,0,0,0-19.59,3.773C110.579,7.072,96.447,1.5,80.553,1.5c-27.289,0-49.411,16.407-49.411,36.646,0,.588.023,1.172.059,1.753C20.231,45.654,13.06,55.131,13.06,65.856c0,17.551,19.185,31.78,42.849,31.78A58.038,58.038,0,0,0,62.1,97.3c5.213,9.331,17.606,15.9,32.071,15.9,12.511,0,23.472-4.911,29.579-12.275a67.244,67.244,0,0,0,21.415,3.431,64.356,64.356,0,0,0,30.9-7.566c5.9,6.607,16.016,10.967,27.5,10.967,16.164,0,29.6-8.627,32.425-20.01a30.041,30.041,0,0,0,6.731.753c12.525,0,22.677-7.53,22.677-16.819C265.4,64.5,259.335,58.375,250.8,55.961Z" transform="translate(39.67 181.332)" fill="none" stroke="#080d4b" stroke-linecap="round" stroke-linejoin="round" stroke-width="2"/>
          </g>
          <g id="그룹_110116" data-name="그룹 110116" transform="translate(0 -16.58)">
            <g id="그룹_110115" data-name="그룹 110115" transform="translate(2.5 -24.185)">
              <g transform="matrix(1, 0, 0, 1, -23663.64, -16361.15)" filter="url(#핫_딜_특가)">
                <text id="핫_딜_특가-2" data-name="핫       딜 특가" transform="translate(186.14 82.69)" fill="#fff" stroke="#000" stroke-width="1" font-size="30" font-family="MalgunGothicBold, Malgun Gothic" letter-spacing="-0.025em"><tspan x="-88.98" y="0">핫</tspan><tspan y="0" xml:space="preserve" font-family="SegoeUI-Bold, Segoe UI" font-weight="700">       </tspan><tspan y="0">딜</tspan><tspan y="0" font-family="SegoeUI-Bold, Segoe UI" font-weight="700"> </tspan><tspan y="0">특가</tspan></text>
              </g>
              <g id="그룹_110114" data-name="그룹 110114" transform="matrix(0.998, -0.07, 0.07, 0.998, -23529.77, -16300.64)">
                <path id="패스_37290" data-name="패스 37290" d="M.007.082,19.591,0l-.007,1.694L0,1.776Z" transform="translate(26.416 14.664) rotate(-11.888)" fill="#fff" stroke="#000" stroke-width="1.2"/>
                <g id="그룹_110113" data-name="그룹 110113" transform="translate(0.27 0.27)">
                  <g id="그룹_110112" data-name="그룹 110112" transform="translate(-4.217 -2.57)">
                    <path id="패스_37291" data-name="패스 37291" d="M80.437,1.706a8.3,8.3,0,0,0-6.121,9.788,8.13,8.13,0,0,0-9.467-6.439,8.422,8.422,0,0,0-6.4,10.015A23.952,23.952,0,0,0,71.573,31.92l7.708,3.655,5.611-6.516a24.4,24.4,0,0,0,5.356-20.82h0a8.255,8.255,0,0,0-9.81-6.532" transform="translate(-47.177 -1.5)" fill="#ff486e" stroke="#000" stroke-width="1.2"/>
                    <path id="패스_37292" data-name="패스 37292" d="M80.437,1.706a8.3,8.3,0,0,0-6.121,9.788,8.13,8.13,0,0,0-9.467-6.439,8.422,8.422,0,0,0-6.4,10.015A23.952,23.952,0,0,0,71.573,31.92l7.708,3.655,5.611-6.516a24.4,24.4,0,0,0,5.356-20.82h0A8.255,8.255,0,0,0,80.437,1.706Z" transform="translate(-47.177 -1.5)" fill="none" stroke="#000" stroke-linecap="round" stroke-linejoin="round" stroke-width="1.2"/>
                    <path id="패스_37293" data-name="패스 37293" d="M237.7,53.066l.925-2.641-1.889-2.036a.715.715,0,0,1,.57-1.2l8.337.759a.981.981,0,0,1,.866.785,1,1,0,0,1-.483,1.075l-7.33,4.126a.705.705,0,0,1-1-.866" transform="translate(-190.606 -38.07)" fill="#ffbb01" stroke="#000" stroke-width="1.2"/>
                    <path id="패스_37294" data-name="패스 37294" d="M138.474,70.927a3.744,3.744,0,0,1,2.014,2.639,3.807,3.807,0,0,1-.8,3.241" transform="translate(-111.706 -57.077)" fill="#f06a86" stroke="#000" stroke-width="1.2"/>
                    <path id="패스_37295" data-name="패스 37295" d="M37.078,84.393l.37,1.795L58.987,81.56a3.956,3.956,0,0,0-.371-1.795Z" transform="translate(-30.125 -64.152)" fill="#fff" stroke="#000" stroke-width="1.2"/>
                    <path id="패스_37296" data-name="패스 37296" d="M1.5,95.764l6.446-1.385,2.313,2.262L3.813,98.025Z" transform="translate(-1.5 -75.851)" fill="#7582f0" stroke="#000" stroke-width="1.2"/>
                    <path id="패스_37297" data-name="패스 37297" d="M7.074,110.122l6.446-1.385,1.224-3.022L8.3,107.1Z" transform="translate(-5.985 -84.926)" fill="#7582f0" stroke="#000" stroke-width="1.2"/>
                  </g>
                </g>
              </g>
            </g>
          </g>
        </g>
        <g id="그룹_111949" data-name="그룹 111949" transform="translate(296.943 222.668) rotate(14)">
          <g id="그룹_110118" data-name="그룹 110118" transform="translate(0 0)" clip-path="url(#clip-path)">
            <path id="패스_37298" data-name="패스 37298" d="M14.152,0A4.748,4.748,0,0,0,9.5,4.748,4.748,4.748,0,0,0,4.841,0,4.823,4.823,0,0,0,0,4.842,13.764,13.764,0,0,0,5.519,15.863L9.5,18.839l3.977-2.976A13.764,13.764,0,0,0,18.992,4.842,4.823,4.823,0,0,0,14.152,0" transform="translate(1.178 1.178)" fill="#f86493" stroke="#707070" stroke-width="1.6"/>
            <path id="패스_37299" data-name="패스 37299" d="M14.152,0A4.748,4.748,0,0,0,9.5,4.748,4.748,4.748,0,0,0,4.841,0,4.823,4.823,0,0,0,0,4.842,13.764,13.764,0,0,0,5.519,15.863L9.5,18.839l3.977-2.976A13.764,13.764,0,0,0,18.992,4.842,4.823,4.823,0,0,0,14.152,0Z" transform="translate(1.178 1.178)" fill="#f86493" stroke="#080d4b" stroke-linecap="round" stroke-linejoin="round" stroke-width="1.6"/>
          </g>
        </g>
        <g id="그룹_111950" data-name="그룹 111950" transform="translate(210.691 172.618) rotate(13)">
          <g id="그룹_110120" data-name="그룹 110120" transform="translate(0 0)" clip-path="url(#clip-path-2)">
            <path id="패스_37300" data-name="패스 37300" d="M22.754,0a7.635,7.635,0,0,0-7.485,7.633A7.635,7.635,0,0,0,7.783,0,7.755,7.755,0,0,0,0,7.786a22.13,22.13,0,0,0,8.874,17.72l6.4,4.785,6.394-4.785a22.13,22.13,0,0,0,8.874-17.72A7.755,7.755,0,0,0,22.754,0" transform="translate(1.894 1.894)" fill="#f86493" stroke="#707070" stroke-width="1.6"/>
            <path id="패스_37301" data-name="패스 37301" d="M22.754,0a7.635,7.635,0,0,0-7.485,7.633A7.635,7.635,0,0,0,7.783,0,7.755,7.755,0,0,0,0,7.786a22.13,22.13,0,0,0,8.874,17.72l6.4,4.785,6.394-4.785a22.13,22.13,0,0,0,8.874-17.72A7.755,7.755,0,0,0,22.754,0Z" transform="translate(1.894 1.894)" fill="#f86493" stroke="#080d4b" stroke-linecap="round" stroke-linejoin="round" stroke-width="1.6"/>
          </g>
        </g>
        <g id="그룹_111951" data-name="그룹 111951" transform="matrix(0.966, -0.259, 0.259, 0.966, 84.961, 267.194)">
          <g id="그룹_110122" data-name="그룹 110122" transform="translate(0 0)" clip-path="url(#clip-path-3)">
            <path id="패스_37302" data-name="패스 37302" d="M16.72,0a5.61,5.61,0,0,0-5.5,5.609A5.61,5.61,0,0,0,5.719,0,5.7,5.7,0,0,0,0,5.721a16.261,16.261,0,0,0,6.52,13.02l4.7,3.516,4.7-3.516a16.261,16.261,0,0,0,6.52-13.02A5.7,5.7,0,0,0,16.72,0" transform="translate(1.391 1.391)" fill="#f86493" stroke="#707070" stroke-width="1.6"/>
            <path id="패스_37303" data-name="패스 37303" d="M16.72,0a5.61,5.61,0,0,0-5.5,5.609A5.61,5.61,0,0,0,5.719,0,5.7,5.7,0,0,0,0,5.721a16.261,16.261,0,0,0,6.52,13.02l4.7,3.516,4.7-3.516a16.261,16.261,0,0,0,6.52-13.02A5.7,5.7,0,0,0,16.72,0Z" transform="translate(1.391 1.391)" fill="#f86493" stroke="#080d4b" stroke-linecap="round" stroke-linejoin="round" stroke-width="1.6"/>
          </g>
        </g>
        <g id="그룹_111952" data-name="그룹 111952" transform="translate(61.07 212.006) rotate(-17)">
          <g id="그룹_110124" data-name="그룹 110124" transform="translate(0 0)" clip-path="url(#clip-path-4)">
            <path id="패스_37304" data-name="패스 37304" d="M16.427,0a5.512,5.512,0,0,0-5.4,5.51A5.512,5.512,0,0,0,5.619,0,5.6,5.6,0,0,0,0,5.621,15.977,15.977,0,0,0,6.406,18.413l4.617,3.454,4.616-3.454A15.977,15.977,0,0,0,22.046,5.621,5.6,5.6,0,0,0,16.427,0" transform="translate(1.367 1.367)" fill="#f86493" stroke="#707070" stroke-width="1.6"/>
            <path id="패스_37305" data-name="패스 37305" d="M16.427,0a5.512,5.512,0,0,0-5.4,5.51A5.512,5.512,0,0,0,5.619,0,5.6,5.6,0,0,0,0,5.621,15.977,15.977,0,0,0,6.406,18.413l4.617,3.454,4.616-3.454A15.977,15.977,0,0,0,22.046,5.621,5.6,5.6,0,0,0,16.427,0Z" transform="translate(1.367 1.367)" fill="#f86493" stroke="#080d4b" stroke-linecap="round" stroke-linejoin="round" stroke-width="1.6"/>
          </g>
        </g>
      </g>
      <g id="마스크_그룹_1234" data-name="마스크 그룹 1234" clip-path="url(#clip-path-5)">
        <g id="그룹_111955" data-name="그룹 111955" transform="matrix(0.956, 0.292, -0.292, 0.956, 298.848, 262.145)">
          <g id="그룹_110032" data-name="그룹 110032" transform="translate(0.317 -5.061)">
            <path id="패스_37204" data-name="패스 37204" d="M45.979,10.678a7.953,7.953,0,0,0-5.953-2.557,9.145,9.145,0,0,0-1.477.13,9.185,9.185,0,0,0-.369-1.359,8.064,8.064,0,0,0-5.02-5A7.728,7.728,0,0,0,30.728,1.5a8.5,8.5,0,0,0-5.971,2.547A8.506,8.506,0,0,0,18.787,1.5a7.736,7.736,0,0,0-2.43.391,8.238,8.238,0,0,0-5.373,6.363,9.1,9.1,0,0,0-1.494-.133,7.955,7.955,0,0,0-5.954,2.557c-3.123,3.412-2.593,9,1.18,12.451l.032.029a10.124,10.124,0,0,1,3.419,7.472V54.006H41.349V30.628a10.124,10.124,0,0,1,3.419-7.472l.031-.028a9.894,9.894,0,0,0,3.117-5.634,8.065,8.065,0,0,0-1.937-6.816" transform="translate(-1.5 -1.5)" fill="#fff" stroke="#707070" stroke-width="1.6"/>
            <path id="패스_37205" data-name="패스 37205" d="M45.979,10.678a7.953,7.953,0,0,0-5.953-2.557,9.145,9.145,0,0,0-1.477.13,9.185,9.185,0,0,0-.369-1.359,8.064,8.064,0,0,0-5.02-5A7.728,7.728,0,0,0,30.728,1.5a8.5,8.5,0,0,0-5.971,2.547A8.506,8.506,0,0,0,18.787,1.5a7.736,7.736,0,0,0-2.43.391,8.238,8.238,0,0,0-5.373,6.363,9.1,9.1,0,0,0-1.494-.133,7.955,7.955,0,0,0-5.954,2.557c-3.123,3.412-2.593,9,1.18,12.451l.032.029a10.124,10.124,0,0,1,3.419,7.472V54.006H41.349V30.628a10.124,10.124,0,0,1,3.419-7.472l.031-.028a9.894,9.894,0,0,0,3.117-5.634A8.065,8.065,0,0,0,45.979,10.678Z" transform="translate(-1.5 -1.5)" fill="none" stroke="#080d4b" stroke-linecap="round" stroke-linejoin="round" stroke-width="1.6"/>
            <path id="패스_37206" data-name="패스 37206" d="M47.214,38.913a10.4,10.4,0,0,0-12.758,0c-3.7,2.789-5.121,7.156-3.164,9.755,1.386,1.84,4.092,2.3,6.869,1.421a8.841,8.841,0,0,1,5.349,0c2.777.879,5.483.419,6.869-1.421,1.957-2.6.54-6.966-3.164-9.755" transform="translate(-17.578 -21.085)" fill="#f06a86" stroke="#707070" stroke-width="1.6"/>
            <path id="패스_37207" data-name="패스 37207" d="M47.214,38.913a10.4,10.4,0,0,0-12.758,0c-3.7,2.789-5.121,7.156-3.164,9.755,1.386,1.84,4.092,2.3,6.869,1.421a8.841,8.841,0,0,1,5.349,0c2.777.879,5.483.419,6.869-1.421C52.335,46.07,50.918,41.7,47.214,38.913Z" transform="translate(-17.578 -21.085)" fill="none" stroke="#080d4b" stroke-linecap="round" stroke-linejoin="round" stroke-width="1.6"/>
            <path id="패스_37208" data-name="패스 37208" d="M40.407,16.091c.72,2.179-.085,4.4-1.8,4.969s-3.685-.742-4.4-2.92.085-4.4,1.8-4.969,3.685.741,4.4,2.92" transform="translate(-19.54 -7.916)" fill="#f06a86" stroke="#707070" stroke-width="1.6"/>
            <path id="패스_37209" data-name="패스 37209" d="M40.407,16.091c.72,2.179-.085,4.4-1.8,4.969s-3.685-.742-4.4-2.92.085-4.4,1.8-4.969S39.687,13.912,40.407,16.091Z" transform="translate(-19.54 -7.916)" fill="none" stroke="#080d4b" stroke-linecap="round" stroke-linejoin="round" stroke-width="1.6"/>
            <path id="패스_37210" data-name="패스 37210" d="M18.976,29.241c1.693,1.549,2.078,3.883.859,5.214s-3.577,1.154-5.269-.4-2.078-3.883-.859-5.214,3.577-1.154,5.269.4" transform="translate(-7.892 -16.21)" fill="#f06a86" stroke="#707070" stroke-width="1.6"/>
            <path id="패스_37211" data-name="패스 37211" d="M18.976,29.241c1.693,1.549,2.078,3.883.859,5.214s-3.577,1.154-5.269-.4-2.078-3.883-.859-5.214S17.284,27.692,18.976,29.241Z" transform="translate(-7.892 -16.21)" fill="none" stroke="#080d4b" stroke-linecap="round" stroke-linejoin="round" stroke-width="1.6"/>
            <path id="패스_37212" data-name="패스 37212" d="M58.947,16.091c-.72,2.179.085,4.4,1.8,4.969s3.685-.742,4.4-2.92-.085-4.4-1.8-4.969-3.685.741-4.4,2.92" transform="translate(-33.298 -7.916)" fill="#f06a86" stroke="#707070" stroke-width="1.6"/>
            <path id="패스_37213" data-name="패스 37213" d="M58.947,16.091c-.72,2.179.085,4.4,1.8,4.969s3.685-.742,4.4-2.92-.085-4.4-1.8-4.969S59.666,13.912,58.947,16.091Z" transform="translate(-33.298 -7.916)" fill="none" stroke="#080d4b" stroke-linecap="round" stroke-linejoin="round" stroke-width="1.6"/>
            <path id="패스_37214" data-name="패스 37214" d="M79.347,29.241c-1.693,1.549-2.078,3.883-.859,5.214s3.577,1.154,5.269-.4,2.078-3.883.859-5.214-3.577-1.154-5.269.4" transform="translate(-43.916 -16.21)" fill="#f06a86" stroke="#707070" stroke-width="1.6"/>
            <path id="패스_37215" data-name="패스 37215" d="M79.347,29.241c-1.693,1.549-2.078,3.883-.859,5.214s3.577,1.154,5.269-.4,2.078-3.883.859-5.214S81.04,27.692,79.347,29.241Z" transform="translate(-43.916 -16.21)" fill="none" stroke="#080d4b" stroke-linecap="round" stroke-linejoin="round" stroke-width="1.6"/>
          </g>
        </g>
      </g>
    </g>
  </g>
</svg>
