<svg xmlns="http://www.w3.org/2000/svg" width="32" height="32" viewBox="0 0 32 32">
    <defs>
        <clipPath id="a">
            <path data-name="사각형 19778" d="M0 0h24v23.915H0z"/>
        </clipPath>
    </defs>
    <g data-name="그룹 109533">
        <g data-name="그룹 109532">
            <g data-name="그룹 109531" transform="translate(4 4)" style="clip-path:url(#a)">
                <path data-name="패스 36996" d="M11.602 23.172A10.338 10.338 0 1 1 21.94 12.836a10.35 10.35 0 0 1-10.338 10.336m0-19.4a9.066 9.066 0 1 0 9.066 9.066 9.076 9.076 0 0 0-9.066-9.066"/>
                <path data-name="사각형 19774" d="M0 5.726 5.248 0l.939.86L.938 6.587z"/>
                <path data-name="사각형 19775" d="m17.813.86.938-.86L24 5.725l-.939.86z"/>
                <path data-name="패스 36997" d="M16.533 13.472h-5.242L6.646 7.501l1.005-.781 4.262 5.48h4.619z"/>
                <path data-name="사각형 19776" d="m2.619 23.069 2.624-2.946.95.846-2.624 2.946z"/>
                <path data-name="사각형 19777" d="m16.614 20.97.95-.846 2.624 2.945-.95.846z"/>
            </g>
        </g>
        <path data-name="사각형 19779" style="fill:none" d="M0 0h32v32H0z"/>
    </g>
</svg>
