<svg xmlns="http://www.w3.org/2000/svg" xmlns:xlink="http://www.w3.org/1999/xlink" width="32" height="32" viewBox="0 0 32 32">
  <defs>
    <style>
      .cls-1 {
        fill: #fff;
      }

      .cls-2 {
        clip-path: url(#clip-path);
      }

      .cls-3 {
        fill: none;
      }
    </style>
    <clipPath id="clip-path">
      <rect id="사각형_19786" data-name="사각형 19786" class="cls-1" width="21.448" height="24"/>
    </clipPath>
  </defs>
  <g id="그룹_109542" data-name="그룹 109542" transform="translate(19728 19382)">
    <g id="그룹_109541" data-name="그룹 109541" transform="translate(-19723 -19378)">
      <g id="그룹_109540" data-name="그룹 109540" class="cls-2" transform="translate(0 0)">
        <path id="패스_37007" data-name="패스 37007" class="cls-1" d="M19.025,24,1.989,23.987A2.271,2.271,0,0,1,.272,22.809a4.027,4.027,0,0,1,.171-3.152L5.7,7.948V4.359a1.98,1.98,0,0,1-.841-.637,2.068,2.068,0,0,1-.284-1.8c.107-.7.663-2.061,2.005-1.91h8.109a1.885,1.885,0,0,1,1.444.579,2.244,2.244,0,0,1,.526,1.588,2.249,2.249,0,0,1-.875,2.065V8.22l5.262,11.854a3.013,3.013,0,0,1,.058,2.918A2.559,2.559,0,0,1,19.025,24M2.217,22.352H19.025a.964.964,0,0,0,.7-.267c.147-.223.075-.727-.192-1.351L14.135,8.57V2.961l.721-.091c.04-.026.157-.234.157-.752a.681.681,0,0,0-.089-.407.373.373,0,0,0-.22-.05L6.392,1.65a2.29,2.29,0,0,0-.2.6c-.062.265-.061.422-.012.49a.655.655,0,0,0,.4.164l.759.06.014.763V8.3l-5.4,12.04a2.517,2.517,0,0,0-.207,1.71c.032.061.114.218.481.3" transform="translate(0 0)"/>
      </g>
    </g>
    <rect id="사각형_19787" data-name="사각형 19787" class="cls-3" width="32" height="32" transform="translate(-19728 -19382)"/>
  </g>
</svg>
