<svg xmlns="http://www.w3.org/2000/svg" width="32" height="32" viewBox="0 0 32 32">
    <defs>
        <clipPath id="a">
            <path data-name="사각형 19784" d="M0 0h24v19.81H0z"/>
        </clipPath>
    </defs>
    <g data-name="그룹 109539">
        <g data-name="그룹 109538">
            <g data-name="그룹 109537" transform="translate(4 6)" style="clip-path:url(#a)">
                <path data-name="패스 37005" d="M20.96 19.81H3.04A3.044 3.044 0 0 1 0 16.769V3.04A3.044 3.044 0 0 1 3.04 0h17.92A3.043 3.043 0 0 1 24 3.04v13.729a3.043 3.043 0 0 1-3.04 3.04M3.04 1.328A1.714 1.714 0 0 0 1.328 3.04v13.729a1.714 1.714 0 0 0 1.712 1.713h17.92a1.714 1.714 0 0 0 1.712-1.713V3.04a1.714 1.714 0 0 0-1.712-1.712z"/>
                <path data-name="패스 37006" d="m14.729 11.366-4.835-.007-9.24-9.251.94-.939 8.851 8.865h3.707l8.236-8.849.973.9z"/>
                <path data-name="사각형 19782" d="m.879 17.97 8.257-8.304.942.936-8.257 8.304z"/>
                <path data-name="사각형 19783" d="m14.264 10.882.916-.961 8.153 7.772-.916.961z"/>
            </g>
        </g>
        <path data-name="사각형 19785" style="fill:none" d="M0 0h32v32H0z"/>
    </g>
</svg>
