<svg xmlns="http://www.w3.org/2000/svg" xmlns:xlink="http://www.w3.org/1999/xlink" width="32" height="32" viewBox="0 0 32 32">
  <defs>
    <style>
      .cls-1 {
        fill: #fff;
      }

      .cls-2 {
        clip-path: url(#clip-path);
      }

      .cls-3 {
        fill: none;
      }
    </style>
    <clipPath id="clip-path">
      <rect id="사각형_19778" data-name="사각형 19778" class="cls-1" width="24" height="23.915"/>
    </clipPath>
  </defs>
  <g id="그룹_109533" data-name="그룹 109533" transform="translate(19787 19477)">
    <g id="그룹_109532" data-name="그룹 109532" transform="translate(-19783 -19473)">
      <g id="그룹_109531" data-name="그룹 109531" class="cls-2" transform="translate(0 0)">
        <path id="패스_36996" data-name="패스 36996" class="cls-1" d="M12.325,24.6A10.338,10.338,0,1,1,22.663,14.264,10.35,10.35,0,0,1,12.325,24.6m0-19.4a9.066,9.066,0,1,0,9.066,9.066A9.076,9.076,0,0,0,12.325,5.2" transform="translate(-0.723 -1.428)"/>
        <rect id="사각형_19774" data-name="사각형 19774" class="cls-1" width="7.767" height="1.273" transform="translate(0 5.726) rotate(-47.491)"/>
        <rect id="사각형_19775" data-name="사각형 19775" class="cls-1" width="1.273" height="7.767" transform="translate(17.813 0.86) rotate(-42.51)"/>
        <path id="패스_36997" data-name="패스 36997" class="cls-1" d="M20.334,17.314H15.092l-4.645-5.971,1.005-.781,4.262,5.48h4.619Z" transform="translate(-3.801 -3.842)"/>
        <rect id="사각형_19776" data-name="사각형 19776" class="cls-1" width="3.945" height="1.272" transform="translate(2.619 23.069) rotate(-48.305)"/>
        <rect id="사각형_19777" data-name="사각형 19777" class="cls-1" width="1.272" height="3.945" transform="translate(16.614 20.97) rotate(-41.705)"/>
      </g>
    </g>
    <rect id="사각형_19779" data-name="사각형 19779" class="cls-3" width="32" height="32" transform="translate(-19787 -19477)"/>
  </g>
</svg>
