<svg xmlns="http://www.w3.org/2000/svg" xmlns:xlink="http://www.w3.org/1999/xlink" width="32" height="32" viewBox="0 0 32 32">
  <defs>
    <style>
      .cls-1 {
        fill: #fff;
      }

      .cls-2 {
        clip-path: url(#clip-path);
      }

      .cls-3 {
        fill: none;
      }
    </style>
    <clipPath id="clip-path">
      <rect id="사각형_19780" data-name="사각형 19780" class="cls-1" width="24" height="23.851"/>
    </clipPath>
  </defs>
  <g id="그룹_109536" data-name="그룹 109536" transform="translate(19816 19479)">
    <g id="그룹_109535" data-name="그룹 109535" transform="translate(-19812 -19475)">
      <g id="그룹_109534" data-name="그룹 109534" class="cls-2" transform="translate(0 0)">
        <path id="패스_36998" data-name="패스 36998" class="cls-1" d="M10.693,23.851c-.182,0-.372,0-.569-.016A12.068,12.068,0,0,1,.112,13.431C.1,13.342-1.528,3.362,8.09.445A14.579,14.579,0,0,1,11.775,0,11.975,11.975,0,0,1,23.518,8.16c.069.219,1.3,4.352-.463,6.731-1.074,1.45-2.96,1.927-5.592,1.383l-.1-.029a3.739,3.739,0,0,0-1.139-.194,1.927,1.927,0,0,0-.846.169c-.09.1-.442.584-.061,1.639a5.414,5.414,0,0,1-.594,4.361,4.743,4.743,0,0,1-4.031,1.631M11.775,1.337a13.356,13.356,0,0,0-3.307.391C0,4.3,1.369,12.851,1.431,13.213A10.706,10.706,0,0,0,10.24,22.5c.13.006.295.01.453.01a3.508,3.508,0,0,0,2.963-1.1,4.146,4.146,0,0,0,.391-3.144,2.641,2.641,0,0,1,.543-3.136l.08-.051a3.165,3.165,0,0,1,1.555-.369,5.122,5.122,0,0,1,1.552.259c2.053.414,3.458.129,4.2-.875,1.363-1.837.286-5.468.275-5.5a10.55,10.55,0,0,0-10.48-7.257" transform="translate(0 0)"/>
        <path id="패스_36999" data-name="패스 36999" class="cls-1" d="M7.029,23.021a2.207,2.207,0,1,1,2.209-2.206,2.21,2.21,0,0,1-2.209,2.206m0-3.079a.872.872,0,1,0,.617.255.873.873,0,0,0-.617-.255" transform="translate(-1.599 -6.172)"/>
        <path id="패스_37000" data-name="패스 37000" class="cls-1" d="M6.692,14.48A2.209,2.209,0,1,1,8.9,12.272,2.211,2.211,0,0,1,6.692,14.48m0-3.081a.872.872,0,1,0,.871.872.874.874,0,0,0-.871-.872" transform="translate(-1.487 -3.338)"/>
        <path id="패스_37001" data-name="패스 37001" class="cls-1" d="M13.435,8.973a2.208,2.208,0,1,1,2.209-2.207,2.21,2.21,0,0,1-2.209,2.207m0-3.079a.871.871,0,1,0,.872.871.872.872,0,0,0-.872-.871" transform="translate(-3.724 -1.512)"/>
        <path id="패스_37002" data-name="패스 37002" class="cls-1" d="M22.091,10.1A2.208,2.208,0,1,1,24.3,7.89,2.211,2.211,0,0,1,22.091,10.1m0-3.08a.871.871,0,1,0,.872.872.873.873,0,0,0-.872-.872" transform="translate(-6.595 -1.885)"/>
        <path id="패스_37003" data-name="패스 37003" class="cls-1" d="M26.7,17.4a2.208,2.208,0,1,1,2.208-2.207A2.212,2.212,0,0,1,26.7,17.4m0-3.08a.872.872,0,1,0,.872.873.875.875,0,0,0-.872-.873" transform="translate(-8.123 -4.307)"/>
        <path id="패스_37004" data-name="패스 37004" class="cls-1" d="M13.717,28.978a2.206,2.206,0,1,1,1.562-.646,2.21,2.21,0,0,1-1.562.646m0-3.08a.872.872,0,1,0,.872.873.873.873,0,0,0-.872-.873" transform="translate(-3.818 -8.148)"/>
      </g>
    </g>
    <rect id="사각형_19781" data-name="사각형 19781" class="cls-3" width="32" height="32" transform="translate(-19816 -19479)"/>
  </g>
</svg>
