<svg xmlns="http://www.w3.org/2000/svg" xmlns:xlink="http://www.w3.org/1999/xlink" width="32" height="32" viewBox="0 0 32 32">
  <defs>
    <style>
      .cls-1 {
        fill: #fff;
      }

      .cls-2 {
        clip-path: url(#clip-path);
      }

      .cls-3 {
        fill: none;
      }
    </style>
    <clipPath id="clip-path">
      <rect id="사각형_19784" data-name="사각형 19784" class="cls-1" width="24" height="19.81"/>
    </clipPath>
  </defs>
  <g id="그룹_109539" data-name="그룹 109539" transform="translate(19773 19499)">
    <g id="그룹_109538" data-name="그룹 109538" transform="translate(-19769 -19493)">
      <g id="그룹_109537" data-name="그룹 109537" class="cls-2" transform="translate(0 0)">
        <path id="패스_37005" data-name="패스 37005" class="cls-1" d="M20.96,19.81H3.04A3.044,3.044,0,0,1,0,16.769V3.04A3.044,3.044,0,0,1,3.04,0H20.96A3.043,3.043,0,0,1,24,3.04V16.769a3.043,3.043,0,0,1-3.04,3.04M3.04,1.328A1.714,1.714,0,0,0,1.328,3.04V16.769A1.714,1.714,0,0,0,3.04,18.482H20.96a1.714,1.714,0,0,0,1.712-1.713V3.04A1.714,1.714,0,0,0,20.96,1.328Z" transform="translate(0 0)"/>
        <path id="패스_37006" data-name="패스 37006" class="cls-1" d="M15.061,11.958l-4.835-.007L.986,2.7l.94-.939,8.851,8.865,3.707,0L22.72,1.777l.973.9Z" transform="translate(-0.332 -0.592)"/>
        <rect id="사각형_19782" data-name="사각형 19782" class="cls-1" width="11.712" height="1.328" transform="matrix(0.705, -0.709, 0.709, 0.705, 0.879, 17.97)"/>
        <rect id="사각형_19783" data-name="사각형 19783" class="cls-1" width="1.328" height="11.264" transform="translate(14.264 10.882) rotate(-46.371)"/>
      </g>
    </g>
    <rect id="사각형_19785" data-name="사각형 19785" class="cls-3" width="32" height="32" transform="translate(-19773 -19499)"/>
  </g>
</svg>
