<svg xmlns="http://www.w3.org/2000/svg" width="32" height="32" viewBox="0 0 32 32">
    <defs>
        <clipPath id="a">
            <path data-name="사각형 19780" d="M0 0h24v23.851H0z"/>
        </clipPath>
    </defs>
    <g data-name="그룹 109536">
        <g data-name="그룹 109535">
            <g data-name="그룹 109534" transform="translate(4 4)" style="clip-path:url(#a)">
                <path data-name="패스 36998" d="M10.693 23.851c-.182 0-.372 0-.569-.016A12.068 12.068 0 0 1 .112 13.431C.1 13.342-1.528 3.362 8.09.445A14.579 14.579 0 0 1 11.775 0a11.975 11.975 0 0 1 11.743 8.16c.069.219 1.3 4.352-.463 6.731-1.074 1.45-2.96 1.927-5.592 1.383l-.1-.029a3.739 3.739 0 0 0-1.139-.194 1.927 1.927 0 0 0-.846.169c-.09.1-.442.584-.061 1.639a5.414 5.414 0 0 1-.594 4.361 4.743 4.743 0 0 1-4.031 1.631m1.083-22.514a13.356 13.356 0 0 0-3.307.391C0 4.3 1.369 12.851 1.431 13.213A10.706 10.706 0 0 0 10.24 22.5c.13.006.295.01.453.01a3.508 3.508 0 0 0 2.963-1.1 4.146 4.146 0 0 0 .391-3.144 2.641 2.641 0 0 1 .543-3.136l.08-.051a3.165 3.165 0 0 1 1.555-.369 5.122 5.122 0 0 1 1.552.259c2.053.414 3.458.129 4.2-.875 1.363-1.837.286-5.468.275-5.5a10.55 10.55 0 0 0-10.48-7.257"/>
                <path data-name="패스 36999" d="M5.43 16.849a2.207 2.207 0 1 1 2.209-2.206 2.21 2.21 0 0 1-2.209 2.206m0-3.079a.872.872 0 1 0 .617.255.873.873 0 0 0-.617-.255"/>
                <path data-name="패스 37000" d="M5.205 11.142a2.209 2.209 0 1 1 2.208-2.208 2.211 2.211 0 0 1-2.208 2.208m0-3.081a.872.872 0 1 0 .871.872.874.874 0 0 0-.871-.872"/>
                <path data-name="패스 37001" d="M9.711 7.461a2.208 2.208 0 1 1 2.209-2.207 2.21 2.21 0 0 1-2.209 2.207m0-3.079a.871.871 0 1 0 .872.871.872.872 0 0 0-.872-.871"/>
                <path data-name="패스 37002" d="M15.496 8.215a2.208 2.208 0 1 1 2.209-2.21 2.211 2.211 0 0 1-2.209 2.21m0-3.08a.871.871 0 1 0 .872.872.873.873 0 0 0-.872-.872"/>
                <path data-name="패스 37003" d="M18.577 13.093a2.208 2.208 0 1 1 2.208-2.207 2.212 2.212 0 0 1-2.208 2.207m0-3.08a.872.872 0 1 0 .872.873.875.875 0 0 0-.872-.873"/>
                <path data-name="패스 37004" d="M9.899 20.83a2.206 2.206 0 1 1 1.562-.646 2.21 2.21 0 0 1-1.562.646m0-3.08a.872.872 0 1 0 .872.873.873.873 0 0 0-.872-.873"/>
            </g>
        </g>
        <path data-name="사각형 19781" style="fill:none" d="M0 0h32v32H0z"/>
    </g>
</svg>
