<svg xmlns="http://www.w3.org/2000/svg" width="32" height="32" viewBox="0 0 32 32">
    <g data-name="4">
        <g data-name="그룹 1827">
            <g data-name="그룹 1811">
                <g data-name="그룹 1664">
                    <g data-name="그룹 1665">
                        <path data-name="패스 36216" d="M22.921 1.392C17.958-.495 14.87 4.982 14 5.994c-.869-1.012-3.958-6.489-8.92-4.6C-.841 3.643-2.176 16.318 14 24.74v0h0v0c16.177-8.422 14.842-21.097 8.921-23.348z" transform="translate(2 3.126)" style="stroke:#292929;stroke-linecap:round;stroke-linejoin:round;stroke-width:1.5px;fill:#ff7e88"/>
                        <path data-name="패스 36217" d="M19.825 13.154c-1.527-.581-2.477 1.1-2.745 1.416-.268-.311-1.218-2-2.745-1.416-1.822.693-2.233 4.592 2.743 7.184h0c4.98-2.591 4.569-6.491 2.747-7.184z" transform="translate(-1.08 .093)" style="stroke:#292929;stroke-linecap:round;stroke-linejoin:round;stroke-width:1.5px;fill:#fff"/>
                    </g>
                </g>
            </g>
        </g>
    </g>
</svg>
